<svg width="197" height="31" viewBox="0 0 197 31" fill="none" xmlns="http://www.w3.org/2000/svg">
<path d="M9.593 24.33C7.547 24.33 5.831 24.033 4.445 23.439C3.081 22.823 2.036 22.031 1.31 21.063C0.606 20.073 0.232 19.039 0.188 17.961C0.188 17.763 0.254 17.598 0.386 17.466C0.518 17.334 0.683 17.268 0.881 17.268H3.818C4.104 17.268 4.313 17.334 4.445 17.466C4.599 17.576 4.731 17.719 4.841 17.895C4.973 18.313 5.226 18.731 5.6 19.149C5.974 19.545 6.48 19.875 7.118 20.139C7.778 20.403 8.603 20.535 9.593 20.535C11.177 20.535 12.354 20.271 13.124 19.743C13.916 19.215 14.312 18.5 14.312 17.598C14.312 16.96 14.103 16.454 13.685 16.08C13.267 15.684 12.618 15.332 11.738 15.024C10.88 14.694 9.736 14.353 8.306 14.001C6.656 13.605 5.27 13.132 4.148 12.582C3.048 12.01 2.212 11.295 1.64 10.437C1.09 9.579 0.815 8.49 0.815 7.17C0.815 5.894 1.156 4.761 1.838 3.771C2.542 2.781 3.532 2 4.808 1.428C6.106 0.855999 7.646 0.569999 9.428 0.569999C10.858 0.569999 12.123 0.767999 13.223 1.164C14.323 1.538 15.236 2.044 15.962 2.682C16.688 3.298 17.238 3.969 17.612 4.695C18.008 5.399 18.217 6.092 18.239 6.774C18.239 6.95 18.173 7.115 18.041 7.269C17.931 7.401 17.766 7.467 17.546 7.467H14.477C14.301 7.467 14.125 7.423 13.949 7.335C13.773 7.247 13.63 7.082 13.52 6.84C13.388 6.158 12.959 5.575 12.233 5.091C11.507 4.607 10.572 4.365 9.428 4.365C8.24 4.365 7.283 4.585 6.557 5.025C5.831 5.465 5.468 6.147 5.468 7.071C5.468 7.687 5.644 8.204 5.996 8.622C6.37 9.018 6.953 9.37 7.745 9.678C8.559 9.986 9.626 10.316 10.946 10.668C12.816 11.086 14.345 11.57 15.533 12.12C16.721 12.67 17.59 13.374 18.14 14.232C18.69 15.068 18.965 16.135 18.965 17.433C18.965 18.885 18.569 20.128 17.777 21.162C17.007 22.174 15.918 22.955 14.51 23.505C13.102 24.055 11.463 24.33 9.593 24.33ZM24.5619 24C24.3419 24 24.1549 23.923 24.0009 23.769C23.8469 23.615 23.7699 23.428 23.7699 23.208V7.632C23.7699 7.412 23.8469 7.225 24.0009 7.071C24.1549 6.917 24.3419 6.84 24.5619 6.84H27.3009C27.5429 6.84 27.7299 6.917 27.8619 7.071C28.0159 7.225 28.0929 7.412 28.0929 7.632V23.208C28.0929 23.428 28.0159 23.615 27.8619 23.769C27.7299 23.923 27.5429 24 27.3009 24H24.5619ZM24.4299 4.002C24.2099 4.002 24.0229 3.925 23.8689 3.771C23.7149 3.617 23.6379 3.43 23.6379 3.21V0.833999C23.6379 0.613999 23.7149 0.426999 23.8689 0.272999C24.0229 0.118999 24.2099 0.0419996 24.4299 0.0419996H27.4329C27.6749 0.0419996 27.8729 0.118999 28.0269 0.272999C28.1809 0.426999 28.2579 0.613999 28.2579 0.833999V3.21C28.2579 3.43 28.1809 3.617 28.0269 3.771C27.8729 3.925 27.6749 4.002 27.4329 4.002H24.4299ZM35.3266 24C35.1066 24 34.9196 23.923 34.7656 23.769C34.6116 23.615 34.5346 23.428 34.5346 23.208V7.632C34.5346 7.412 34.6116 7.225 34.7656 7.071C34.9196 6.917 35.1066 6.84 35.3266 6.84H37.9006C38.1206 6.84 38.3076 6.917 38.4616 7.071C38.6156 7.225 38.6926 7.412 38.6926 7.632V8.754C39.1546 8.138 39.7706 7.621 40.5406 7.203C41.3326 6.763 42.2676 6.532 43.3456 6.51C45.8536 6.466 47.6026 7.445 48.5926 9.447C49.0986 8.567 49.8246 7.863 50.7706 7.335C51.7386 6.785 52.8056 6.51 53.9716 6.51C55.1156 6.51 56.1496 6.774 57.0736 7.302C58.0196 7.83 58.7566 8.633 59.2846 9.711C59.8346 10.767 60.1096 12.109 60.1096 13.737V23.208C60.1096 23.428 60.0326 23.615 59.8786 23.769C59.7246 23.923 59.5376 24 59.3176 24H56.6116C56.3916 24 56.2046 23.923 56.0506 23.769C55.8966 23.615 55.8196 23.428 55.8196 23.208V14.001C55.8196 13.011 55.6766 12.23 55.3906 11.658C55.1046 11.064 54.7196 10.646 54.2356 10.404C53.7516 10.162 53.2126 10.041 52.6186 10.041C52.1346 10.041 51.6506 10.162 51.1666 10.404C50.6826 10.646 50.2866 11.064 49.9786 11.658C49.6706 12.23 49.5166 13.011 49.5166 14.001V23.208C49.5166 23.428 49.4396 23.615 49.2856 23.769C49.1316 23.923 48.9446 24 48.7246 24H46.0186C45.7986 24 45.6116 23.923 45.4576 23.769C45.3036 23.615 45.2266 23.428 45.2266 23.208V14.001C45.2266 13.011 45.0726 12.23 44.7646 11.658C44.4566 11.064 44.0606 10.646 43.5766 10.404C43.0926 10.162 42.5756 10.041 42.0256 10.041C41.5196 10.041 41.0246 10.173 40.5406 10.437C40.0566 10.679 39.6606 11.086 39.3526 11.658C39.0446 12.23 38.8906 13.011 38.8906 14.001V23.208C38.8906 23.428 38.8136 23.615 38.6596 23.769C38.5056 23.923 38.3186 24 38.0986 24H35.3266ZM66.5559 30.27C66.3359 30.27 66.1489 30.193 65.9949 30.039C65.8409 29.885 65.7639 29.698 65.7639 29.478V7.632C65.7639 7.412 65.8409 7.225 65.9949 7.071C66.1489 6.917 66.3359 6.84 66.5559 6.84H69.1629C69.4049 6.84 69.5919 6.917 69.7239 7.071C69.8779 7.225 69.9549 7.412 69.9549 7.632V8.952C70.4829 8.248 71.1759 7.665 72.0339 7.203C72.8919 6.741 73.9589 6.51 75.2349 6.51C76.4009 6.51 77.4129 6.697 78.2709 7.071C79.1289 7.445 79.8439 7.984 80.4159 8.688C80.9879 9.37 81.4279 10.184 81.7359 11.13C82.0439 12.076 82.2199 13.121 82.2639 14.265C82.2859 14.639 82.2969 15.024 82.2969 15.42C82.2969 15.816 82.2859 16.212 82.2639 16.608C82.2419 17.708 82.0769 18.731 81.7689 19.677C81.4609 20.601 81.0099 21.415 80.4159 22.119C79.8439 22.801 79.1289 23.34 78.2709 23.736C77.4129 24.132 76.4009 24.33 75.2349 24.33C74.0469 24.33 73.0349 24.121 72.1989 23.703C71.3629 23.263 70.6809 22.691 70.1529 21.987V29.478C70.1529 29.698 70.0759 29.885 69.9219 30.039C69.7899 30.193 69.6029 30.27 69.3609 30.27H66.5559ZM74.0139 20.799C74.9599 20.799 75.6969 20.601 76.2249 20.205C76.7529 19.787 77.1379 19.248 77.3799 18.588C77.6219 17.928 77.7649 17.202 77.8089 16.41C77.8309 15.75 77.8309 15.09 77.8089 14.43C77.7649 13.638 77.6219 12.912 77.3799 12.252C77.1379 11.592 76.7529 11.064 76.2249 10.668C75.6969 10.25 74.9599 10.041 74.0139 10.041C73.1119 10.041 72.3749 10.25 71.8029 10.668C71.2529 11.086 70.8459 11.625 70.5819 12.285C70.3399 12.923 70.1969 13.583 70.1529 14.265C70.1309 14.661 70.1199 15.079 70.1199 15.519C70.1199 15.959 70.1309 16.388 70.1529 16.806C70.1749 17.466 70.3289 18.104 70.6149 18.72C70.9009 19.314 71.3189 19.809 71.8689 20.205C72.4189 20.601 73.1339 20.799 74.0139 20.799ZM88.2454 24C88.0254 24 87.8384 23.923 87.6844 23.769C87.5304 23.615 87.4534 23.428 87.4534 23.208V1.362C87.4534 1.142 87.5304 0.954999 87.6844 0.801C87.8384 0.646999 88.0254 0.569999 88.2454 0.569999H90.9844C91.2044 0.569999 91.3914 0.646999 91.5454 0.801C91.6994 0.954999 91.7764 1.142 91.7764 1.362V23.208C91.7764 23.428 91.6994 23.615 91.5454 23.769C91.3914 23.923 91.2044 24 90.9844 24H88.2454ZM104.965 24.33C102.523 24.33 100.587 23.626 99.1568 22.218C97.7268 20.81 96.9568 18.808 96.8468 16.212C96.8248 15.992 96.8138 15.717 96.8138 15.387C96.8138 15.035 96.8248 14.76 96.8468 14.562C96.9348 12.89 97.3088 11.46 97.9688 10.272C98.6508 9.062 99.5858 8.138 100.774 7.5C101.962 6.84 103.359 6.51 104.965 6.51C106.747 6.51 108.243 6.884 109.453 7.632C110.663 8.358 111.576 9.381 112.192 10.701C112.808 11.999 113.116 13.506 113.116 15.222V15.915C113.116 16.135 113.039 16.322 112.885 16.476C112.731 16.63 112.533 16.707 112.291 16.707H101.335C101.335 16.707 101.335 16.74 101.335 16.806C101.335 16.872 101.335 16.927 101.335 16.971C101.357 17.741 101.5 18.456 101.764 19.116C102.05 19.754 102.457 20.271 102.985 20.667C103.535 21.063 104.184 21.261 104.932 21.261C105.548 21.261 106.065 21.173 106.483 20.997C106.901 20.799 107.242 20.579 107.506 20.337C107.77 20.095 107.957 19.897 108.067 19.743C108.265 19.479 108.419 19.325 108.529 19.281C108.661 19.215 108.848 19.182 109.09 19.182H111.928C112.148 19.182 112.324 19.248 112.456 19.38C112.61 19.512 112.676 19.677 112.654 19.875C112.632 20.227 112.445 20.656 112.093 21.162C111.763 21.668 111.279 22.163 110.641 22.647C110.003 23.131 109.2 23.538 108.232 23.868C107.286 24.176 106.197 24.33 104.965 24.33ZM101.335 13.935H108.628V13.836C108.628 12.978 108.485 12.23 108.199 11.592C107.913 10.932 107.495 10.426 106.945 10.074C106.395 9.7 105.735 9.513 104.965 9.513C104.195 9.513 103.535 9.7 102.985 10.074C102.435 10.426 102.017 10.932 101.731 11.592C101.467 12.23 101.335 12.978 101.335 13.836V13.935Z" fill="#FF6838"/>
<path d="M119.226 24C119.006 24 118.819 23.923 118.665 23.769C118.511 23.615 118.434 23.428 118.434 23.208V1.725C118.434 1.483 118.511 1.285 118.665 1.131C118.819 0.976999 119.006 0.899998 119.226 0.899998H133.548C133.79 0.899998 133.988 0.976999 134.142 1.131C134.296 1.285 134.373 1.483 134.373 1.725V4.035C134.373 4.277 134.296 4.475 134.142 4.629C133.988 4.761 133.79 4.827 133.548 4.827H122.955V11.097H132.888C133.13 11.097 133.328 11.174 133.482 11.328C133.636 11.482 133.713 11.68 133.713 11.922V14.232C133.713 14.452 133.636 14.639 133.482 14.793C133.328 14.947 133.13 15.024 132.888 15.024H122.955V23.208C122.955 23.428 122.878 23.615 122.724 23.769C122.57 23.923 122.372 24 122.13 24H119.226ZM146.544 24.33C144.784 24.33 143.299 24.022 142.089 23.406C140.901 22.79 139.988 21.921 139.35 20.799C138.734 19.677 138.382 18.368 138.294 16.872C138.272 16.476 138.261 15.992 138.261 15.42C138.261 14.848 138.272 14.364 138.294 13.968C138.382 12.45 138.745 11.141 139.383 10.041C140.043 8.919 140.967 8.05 142.155 7.434C143.365 6.818 144.828 6.51 146.544 6.51C148.26 6.51 149.712 6.818 150.9 7.434C152.11 8.05 153.034 8.919 153.672 10.041C154.332 11.141 154.706 12.45 154.794 13.968C154.816 14.364 154.827 14.848 154.827 15.42C154.827 15.992 154.816 16.476 154.794 16.872C154.706 18.368 154.343 19.677 153.705 20.799C153.089 21.921 152.176 22.79 150.966 23.406C149.778 24.022 148.304 24.33 146.544 24.33ZM146.544 21.063C147.71 21.063 148.612 20.7 149.25 19.974C149.888 19.226 150.24 18.137 150.306 16.707C150.328 16.377 150.339 15.948 150.339 15.42C150.339 14.892 150.328 14.463 150.306 14.133C150.24 12.703 149.888 11.625 149.25 10.899C148.612 10.151 147.71 9.777 146.544 9.777C145.378 9.777 144.476 10.151 143.838 10.899C143.2 11.625 142.848 12.703 142.782 14.133C142.76 14.463 142.749 14.892 142.749 15.42C142.749 15.948 142.76 16.377 142.782 16.707C142.848 18.137 143.2 19.226 143.838 19.974C144.476 20.7 145.378 21.063 146.544 21.063ZM167.492 24.33C165.732 24.33 164.247 24.022 163.037 23.406C161.849 22.79 160.936 21.921 160.298 20.799C159.682 19.677 159.33 18.368 159.242 16.872C159.22 16.476 159.209 15.992 159.209 15.42C159.209 14.848 159.22 14.364 159.242 13.968C159.33 12.45 159.693 11.141 160.331 10.041C160.991 8.919 161.915 8.05 163.103 7.434C164.313 6.818 165.776 6.51 167.492 6.51C169.208 6.51 170.66 6.818 171.848 7.434C173.058 8.05 173.982 8.919 174.62 10.041C175.28 11.141 175.654 12.45 175.742 13.968C175.764 14.364 175.775 14.848 175.775 15.42C175.775 15.992 175.764 16.476 175.742 16.872C175.654 18.368 175.291 19.677 174.653 20.799C174.037 21.921 173.124 22.79 171.914 23.406C170.726 24.022 169.252 24.33 167.492 24.33ZM167.492 21.063C168.658 21.063 169.56 20.7 170.198 19.974C170.836 19.226 171.188 18.137 171.254 16.707C171.276 16.377 171.287 15.948 171.287 15.42C171.287 14.892 171.276 14.463 171.254 14.133C171.188 12.703 170.836 11.625 170.198 10.899C169.56 10.151 168.658 9.777 167.492 9.777C166.326 9.777 165.424 10.151 164.786 10.899C164.148 11.625 163.796 12.703 163.73 14.133C163.708 14.463 163.697 14.892 163.697 15.42C163.697 15.948 163.708 16.377 163.73 16.707C163.796 18.137 164.148 19.226 164.786 19.974C165.424 20.7 166.326 21.063 167.492 21.063ZM187.219 24.33C186.075 24.33 185.063 24.143 184.183 23.769C183.325 23.373 182.61 22.823 182.038 22.119C181.466 21.415 181.026 20.59 180.718 19.644C180.41 18.676 180.234 17.62 180.19 16.476C180.168 16.08 180.157 15.728 180.157 15.42C180.157 15.09 180.168 14.727 180.19 14.331C180.234 13.231 180.399 12.208 180.685 11.262C180.993 10.316 181.433 9.491 182.005 8.787C182.599 8.061 183.325 7.5 184.183 7.104C185.063 6.708 186.075 6.51 187.219 6.51C188.407 6.51 189.408 6.719 190.222 7.137C191.058 7.533 191.751 8.05 192.301 8.688V1.362C192.301 1.142 192.367 0.954999 192.499 0.801C192.653 0.646999 192.851 0.569999 193.093 0.569999H195.898C196.118 0.569999 196.305 0.646999 196.459 0.801C196.613 0.954999 196.69 1.142 196.69 1.362V23.208C196.69 23.428 196.613 23.615 196.459 23.769C196.305 23.923 196.118 24 195.898 24H193.291C193.049 24 192.851 23.923 192.697 23.769C192.565 23.615 192.499 23.428 192.499 23.208V21.987C191.949 22.669 191.245 23.23 190.387 23.67C189.551 24.11 188.495 24.33 187.219 24.33ZM188.44 20.799C189.364 20.799 190.101 20.59 190.651 20.172C191.201 19.754 191.608 19.226 191.872 18.588C192.136 17.928 192.279 17.257 192.301 16.575C192.323 16.179 192.334 15.761 192.334 15.321C192.334 14.859 192.323 14.43 192.301 14.034C192.279 13.374 192.125 12.747 191.839 12.153C191.553 11.537 191.135 11.031 190.585 10.635C190.035 10.239 189.32 10.041 188.44 10.041C187.516 10.041 186.779 10.25 186.229 10.668C185.701 11.064 185.316 11.592 185.074 12.252C184.832 12.912 184.689 13.638 184.645 14.43C184.623 15.09 184.623 15.75 184.645 16.41C184.689 17.202 184.832 17.928 185.074 18.588C185.316 19.248 185.701 19.787 186.229 20.205C186.779 20.601 187.516 20.799 188.44 20.799Z" fill="#363853"/>
</svg>
